# xmcd CD database file
#
# Track frame offsets:
#        150
#        10803
#        20287
#        31148
#        41627
#        53128
#        64039
#        77124
#        86279
#        107453
#        119573
#        131044
#        144004
#        154806
#        167565
#        181248
#        190688
#        201819
#        213978
#        226179
#
# Disc length: 3168 seconds
#
# Revision: 0
# Processed by: cddbd v1.5.2PL0 Copyright (c) Steve Scherf et al.
# Submitted via: CUERipper 2.1.5
#
DISCID=f70c5e14
DTITLE=Various Artist - 60 Hits of the 60s
DYEAR=1900
DGENRE=
TTITLE0=The Beatles - Love Me Do
TTITLE1=The Beach Boys - Surfin’ Safari
TTITLE2=Carole King - It Might as Well Rain Until September
TTITLE3=Del Shannon - Runaway
TTITLE4=The Four Seasons - Sherry
TTITLE5=Chris Montez - Let’s Dance
TTITLE6=The Shadows - Apache
TTITLE7=Peter, Paul and Mary - If I Had a Hammer
TTITLE8=The Isley Brothers - Shout
TTITLE9=Sam Cooke - Twistin’ the Night Away
TTITLE10=The Crystals - He’s a Rebel
TTITLE11=Booker T. and The MG’s - Green Onions
TTITLE12=Bruce Channel - Hey Baby
TTITLE13=Smokey Robinson and The Miracles - Shop Around
TTITLE14=Jimmy Dean - Big Bad John
TTITLE15=The Shirelles - Dedicated to the One I Love
TTITLE16=Timi Yuro - Hurt
TTITLE17=The Tokens - The Lion Sleeps Tonight
TTITLE18=Dion - The Wanderer
TTITLE19=Helen Shapiro - Walking Back to Happiness
EXTD=
EXTT0=
EXTT1=
EXTT2=
EXTT3=
EXTT4=
EXTT5=
EXTT6=
EXTT7=
EXTT8=
EXTT9=
EXTT10=
EXTT11=
EXTT12=
EXTT13=
EXTT14=
EXTT15=
EXTT16=
EXTT17=
EXTT18=
EXTT19=
PLAYORDER=
